HIERARCHY
ROOT joint_Root
{
	OFFSET 0.0 0.0 0.0
	CHANNELS 6 Xposition Yposition Zposition Zrotation Xrotation Yrotation 
	JOINT Hips
	{
		OFFSET 4.5925 91.4895 -427.239
		CHANNELS 6 Xposition Yposition Zposition Zrotation Xrotation Yrotation 
		JOINT Spine
		{
			OFFSET 15.7357 0.0 0.0
			CHANNELS 6 Xposition Yposition Zposition Zrotation Xrotation Yrotation 
			JOINT Chest
			{
				OFFSET 8.98455 -0.406207 0.0
				CHANNELS 6 Xposition Yposition Zposition Zrotation Xrotation Yrotation 
				JOINT Neck
				{
					OFFSET 16.3773 0.0 0.0
					CHANNELS 6 Xposition Yposition Zposition Zrotation Xrotation Yrotation 
					JOINT Head
					{
						OFFSET 6.45672 0.0 0.0
						CHANNELS 6 Xposition Yposition Zposition Zrotation Xrotation Yrotation 
						End Site
						{
							OFFSET 0.0 0.0 0.0
						}
					}
				}
				JOINT Shoulder_L
				{
					OFFSET 12.9942 -0.242716 4.98039
					CHANNELS 6 Xposition Yposition Zposition Zrotation Xrotation Yrotation 
					JOINT UpperArm_L
					{
						OFFSET 5.34809 0.0 0.0
						CHANNELS 6 Xposition Yposition Zposition Zrotation Xrotation Yrotation 
						JOINT LowerArm_L
						{
							OFFSET 24.3286 1.87007e-05 0.0
							CHANNELS 6 Xposition Yposition Zposition Zrotation Xrotation Yrotation 
							JOINT Hand_L
							{
								OFFSET 22.2916 0.0 0.0
								CHANNELS 6 Xposition Yposition Zposition Zrotation Xrotation Yrotation 
								End Site
								{
									OFFSET 0.0 0.0 0.0
								}
							}
						}
					}
				}
				JOINT Shoulder_R
				{
					OFFSET 12.9945 -0.242716 -4.98039
					CHANNELS 6 Xposition Yposition Zposition Zrotation Xrotation Yrotation 
					JOINT UpperArm_R
					{
						OFFSET -5.34813 0.0 0.0
						CHANNELS 6 Xposition Yposition Zposition Zrotation Xrotation Yrotation 
						JOINT LowerArm_R
						{
							OFFSET -24.3289 0.000322201 0.0
							CHANNELS 6 Xposition Yposition Zposition Zrotation Xrotation Yrotation 
							JOINT Hand_R
							{
								OFFSET -22.2915 -0.000108084 0.0
								CHANNELS 6 Xposition Yposition Zposition Zrotation Xrotation Yrotation 
								End Site
								{
									OFFSET 0.0 0.0 0.0
								}
							}
						}
					}
				}
			}
		}
		JOINT UpperLeg_L
		{
			OFFSET -2.19248 -6.46944 0.0
			CHANNELS 6 Xposition Yposition Zposition Zrotation Xrotation Yrotation 
			JOINT LowerLeg_L
			{
				OFFSET 39.0811 0.0 -1.23785e-05
				CHANNELS 6 Xposition Yposition Zposition Zrotation Xrotation Yrotation 
				JOINT Foot_L
				{
					OFFSET 40.9854 0.0 -1.26872e-05
					CHANNELS 6 Xposition Yposition Zposition Zrotation Xrotation Yrotation 
					JOINT Toes_L
					{
						OFFSET 11.7543 0.0 0.0
						CHANNELS 6 Xposition Yposition Zposition Zrotation Xrotation Yrotation 
						End Site
						{
							OFFSET 0.0 0.0 0.0
						}
					}
				}
			}
		}
		JOINT UpperLeg_R
		{
			OFFSET -2.19251 6.46944 0.0
			CHANNELS 6 Xposition Yposition Zposition Zrotation Xrotation Yrotation 
			JOINT LowerLeg_R
			{
				OFFSET -39.0811 -0.00228153 -0.0401928
				CHANNELS 6 Xposition Yposition Zposition Zrotation Xrotation Yrotation 
				JOINT Foot_R
				{
					OFFSET -40.9854 0.0 0.0
					CHANNELS 6 Xposition Yposition Zposition Zrotation Xrotation Yrotation 
					JOINT Toes_R
					{
						OFFSET -11.7543 0.0 0.0
						CHANNELS 6 Xposition Yposition Zposition Zrotation Xrotation Yrotation 
						End Site
						{
							OFFSET 0.0 0.0 0.0
						}
					}
				}
			}
		}
	}
}
MOTION
Frames:	4
Frame Time:	0.0333333
0.000000 0.000000 0.000000 0.000000 0.000000 -0.000000 -0.568972 90.575900 -5.076830 89.488900 -3.344640 9.641920 15.735700 0.000005 -0.000001 88.759600 76.796400 -89.119500 8.984550 -0.406207 -0.000000 18.633900 -0.594393 -0.623902 16.377300 -0.000001 -0.000001 5.773980 -4.057120 2.410740 6.456720 -0.000001 -0.000000 -9.198700 -3.162460 0.134103 12.994200 -0.242716 4.980390 -90.844100 4.737100 -79.884900 5.348090 -0.000007 -0.000001 -55.881100 35.252700 -33.206900 24.328600 0.000019 0.000005 9.758490 21.822600 -24.827500 22.291600 -0.000001 0.000005 11.187100 5.217990 2.264120 12.994500 -0.242716 -4.980390 89.546500 8.831750 -87.049100 -5.348130 -0.000001 -0.000004 -58.684600 30.809100 -26.521800 -24.328900 0.000322 -0.000009 2.929400 6.381640 -24.728800 -22.291500 -0.000108 -0.000004 17.673500 5.412680 -3.353610 -2.192480 -6.469440 -0.000000 -175.327000 -11.250500 -5.226570 39.081100 -0.000007 -0.000012 -0.172671 0.262268 33.360300 40.985400 -0.000006 -0.000013 0.189620 4.508480 -68.364500 11.754300 -0.000000 0.000003 -0.000089 -0.000933 -16.613400 -2.192510 6.469440 -0.000001 175.912000 18.770100 175.577000 -39.081100 -0.002282 -0.040193 -0.132738 0.209183 33.036400 -40.985400 0.000008 0.000006 4.573720 11.365700 -69.182500 -11.754300 -0.000006 -0.000006 -0.003419 -0.045257 -18.413800
0.000000 0.000000 0.000000 0.000000 0.000000 -0.000000 -0.548151 90.572600 -5.118910 89.479300 -3.376100 9.520060 15.735700 0.000005 -0.000001 88.724300 76.801700 -89.086900 8.984550 -0.406207 -0.000000 18.622800 -0.610355 -0.626697 16.377300 -0.000001 -0.000001 5.695610 -4.061880 2.470000 6.456720 -0.000001 -0.000000 -9.171670 -3.096590 0.111894 12.994200 -0.242716 4.980390 -90.852000 4.747350 -79.813700 5.348090 -0.000007 -0.000001 -56.245800 34.544600 -32.745200 24.328600 0.000019 0.000005 10.573300 22.039000 -26.447700 22.291600 -0.000001 0.000005 11.413900 5.210520 2.453930 12.994500 -0.242716 -4.980390 89.536800 8.831980 -86.985900 -5.348130 -0.000001 -0.000004 -58.883500 30.250100 -26.405400 -24.328900 0.000322 -0.000009 3.124250 6.473860 -25.838800 -22.291500 -0.000108 -0.000004 18.271200 5.417090 -3.501030 -2.192480 -6.469440 -0.000000 -175.368000 -11.230100 -5.396320 39.081100 -0.000007 -0.000012 -0.172600 0.261813 33.395100 40.985400 -0.000006 -0.000013 0.192367 4.450770 -68.356900 11.754300 -0.000000 0.000003 -0.000079 -0.000838 -16.609800 -2.192510 6.469440 -0.000001 175.976000 18.761800 175.382000 -39.081100 -0.002282 -0.040193 -0.131634 0.207174 33.075700 -40.985400 0.000008 0.000006 4.657390 11.336300 -69.175700 -11.754300 -0.000006 -0.000006 -0.003393 -0.044969 -18.402100
0.000000 0.000000 0.000000 0.000000 0.000000 -0.000000 -0.537818 90.578600 -5.139050 89.473400 -3.399950 9.463300 15.735700 0.000005 -0.000001 88.746300 76.781000 -89.113700 8.984550 -0.406207 -0.000000 18.664400 -0.601858 -0.637650 16.377300 -0.000001 -0.000001 5.646720 -4.072090 2.521280 6.456720 -0.000001 -0.000000 -9.207470 -3.086240 0.140865 12.994200 -0.242716 4.980390 -90.853800 4.720220 -79.735600 5.348090 -0.000007 -0.000001 -56.853100 33.530100 -32.206500 24.328600 0.000019 0.000005 11.493300 22.181800 -28.304800 22.291600 -0.000001 0.000005 12.024100 5.205840 2.572120 12.994500 -0.242716 -4.980390 89.513400 8.844930 -86.838800 -5.348130 -0.000001 -0.000004 -59.101300 29.504500 -26.265400 -24.328900 0.000322 -0.000009 3.653180 7.093350 -27.346600 -22.291500 -0.000108 -0.000004 18.808300 5.417570 -3.517080 -2.192480 -6.469440 -0.000000 -175.381000 -11.260200 -5.460790 39.081100 -0.000007 -0.000012 -0.169722 0.257633 33.376100 40.985400 -0.000006 -0.000013 0.196236 4.437400 -68.330300 11.754300 -0.000000 0.000003 -0.000087 -0.000912 -16.612700 -2.192510 6.469440 -0.000001 176.022000 18.748400 175.308000 -39.081100 -0.002282 -0.040193 -0.125735 0.198242 33.059100 -40.985400 0.000008 0.000006 4.713210 11.296200 -69.160900 -11.754300 -0.000006 -0.000006 -0.003318 -0.044147 -18.368600
0.000000 0.000000 0.000000 0.000000 0.000000 -0.000000 -0.524145 90.583900 -5.157580 89.475900 -3.389590 9.416320 15.735700 0.000005 -0.000001 88.739100 76.764300 -89.113800 8.984550 -0.406207 -0.000000 18.697800 -0.606633 -0.651489 16.377300 -0.000001 -0.000001 5.644710 -4.106440 2.550230 6.456720 -0.000001 -0.000000 -9.202990 -3.104070 0.174846 12.994200 -0.242716 4.980390 -90.853400 4.669220 -79.630200 5.348090 -0.000007 -0.000001 -57.265200 32.500300 -31.941100 24.328600 0.000019 0.000005 12.251100 21.967900 -30.133300 22.291600 -0.000001 0.000005 12.393700 5.199080 2.742240 12.994500 -0.242716 -4.980390 89.492100 8.832740 -86.695700 -5.348130 -0.000001 -0.000004 -59.193700 28.778100 -26.136800 -24.328900 0.000322 -0.000009 4.264790 7.648840 -29.265600 -22.291500 -0.000108 -0.000004 19.426000 5.420640 -3.620520 -2.192480 -6.469440 -0.000000 -175.406000 -11.238700 -5.513350 39.081100 -0.000007 -0.000012 -0.173417 0.263464 33.354000 40.985400 -0.000006 -0.000013 0.199505 4.418710 -68.306700 11.754300 -0.000000 0.000003 -0.000092 -0.000957 -16.614300 -2.192510 6.469440 -0.000001 176.042000 18.732300 175.247000 -39.081100 -0.002282 -0.040193 -0.123214 0.194471 33.045200 -40.985400 0.000008 0.000006 4.739070 11.270800 -69.143000 -11.754300 -0.000006 -0.000006 -0.003380 -0.044832 -18.396500
